<?xml version="1.0" standalone="no"?>
<!DOCTYPE svg PUBLIC "-//W3C//DTD SVG 20010904//EN"
 "http://www.w3.org/TR/2001/REC-SVG-20010904/DTD/svg10.dtd">
<svg version="1.0" xmlns="http://www.w3.org/2000/svg"
 width="512.000000pt" height="512.000000pt" viewBox="0 0 512.000000 512.000000"
 preserveAspectRatio="xMidYMid meet">
<metadata>
Created by potrace 1.14, written by Peter Selinger 2001-2017
</metadata>
<g transform="translate(0.000000,512.000000) scale(0.100000,-0.100000)"
fill="#000000" stroke="none">
<path d="M0 2560 l0 -2560 2560 0 2560 0 0 2560 0 2560 -2560 0 -2560 0 0
-2560z m2725 2390 c259 -91 1977 -745 2010 -765 54 -31 128 -111 158 -171 38
-77 61 -183 48 -230 -9 -36 -32 -310 -46 -564 -34 -595 -112 -1243 -171 -1419
-41 -122 -102 -229 -169 -297 -53 -53 -1646 -1226 -1775 -1306 -25 -15 -84
-38 -132 -50 l-86 -21 -88 21 c-48 12 -105 33 -128 46 -50 30 -1676 1215
-1762 1284 -34 28 -81 80 -107 119 -90 136 -86 106 -198 1230 -111 1110 -109
1074 -53 1186 31 61 105 141 159 172 22 13 159 69 305 123 146 55 588 222 983
371 394 149 747 280 785 291 84 25 157 19 267 -20z"/>
<path d="M2431 4175 c-111 -31 -181 -91 -155 -132 15 -25 70 -61 113 -74 20
-6 83 -13 141 -16 167 -8 302 30 353 99 19 26 19 28 3 53 -10 15 -43 39 -74
53 -51 24 -71 27 -192 29 -97 2 -150 -1 -189 -12z m314 -69 c27 -19 13 -43
-34 -57 -52 -15 -105 -2 -109 27 -2 13 5 24 20 32 32 15 101 15 123 -2z"/>
<path d="M589 3545 c-31 -17 -59 -80 -59 -133 0 -190 189 -428 315 -396 37 9
73 58 81 110 19 131 -81 337 -199 404 -57 33 -98 37 -138 15z m134 -292 c21
-24 31 -69 17 -78 -24 -15 -66 48 -54 80 8 20 17 19 37 -2z"/>
<path d="M1688 2944 c-16 -8 -37 -33 -49 -56 -18 -35 -21 -54 -17 -120 11
-196 192 -408 347 -408 94 0 137 65 129 195 -7 101 -56 204 -139 290 -98 102
-198 139 -271 99z m156 -306 c20 -28 21 -68 3 -68 -26 0 -64 61 -51 81 9 16
32 10 48 -13z"/>
<path d="M3334 2761 c-108 -62 -204 -204 -226 -333 -36 -208 143 -254 304 -79
139 150 179 374 77 427 -44 22 -98 17 -155 -15z m33 -306 c5 -16 -35 -75 -52
-75 -20 0 -19 39 1 68 16 23 44 27 51 7z"/>
<path d="M1131 2454 c-92 -65 -50 -282 82 -422 91 -96 173 -119 221 -62 33 40
42 89 28 161 -23 126 -123 274 -215 318 -52 25 -85 26 -116 5z m152 -302 c20
-22 26 -63 10 -69 -17 -6 -53 37 -53 64 0 28 21 30 43 5z"/>
<path d="M3879 2371 c-168 -106 -252 -410 -128 -462 75 -30 190 58 256 196 96
204 21 361 -128 266z m21 -251 c0 -10 -11 -32 -24 -47 -19 -22 -27 -25 -37
-16 -9 9 -9 19 1 43 20 49 60 62 60 20z"/>
<path d="M635 2066 c-112 -112 90 -496 260 -496 35 0 72 40 81 86 23 121 -93
341 -214 407 -61 33 -96 34 -127 3z m170 -271 c28 -27 33 -65 10 -65 -21 0
-55 41 -55 67 0 30 15 29 45 -2z"/>
<path d="M4333 2051 c-89 -65 -164 -185 -184 -296 -13 -70 -3 -105 36 -131 39
-26 95 -5 159 59 120 120 180 311 120 378 -26 29 -83 25 -131 -10z m-5 -252
c4 -20 -35 -69 -54 -69 -21 0 -17 33 7 64 22 28 42 30 47 5z"/>
<path d="M1683 1361 c-102 -64 -43 -292 116 -452 62 -63 86 -80 132 -94 69
-22 104 -13 137 35 115 170 -220 614 -385 511z m200 -323 c12 -15 17 -33 13
-43 -6 -16 -9 -16 -29 -3 -25 17 -48 58 -40 70 9 15 35 4 56 -24z"/>
</g>
</svg>
